<svg width="80" height="80" viewBox="0 0 80 80" fill="none" xmlns="http://www.w3.org/2000/svg">
<path d="M8.60004 63.3667L8.53337 63.4333C7.63337 61.4667 7.06671 59.2333 6.83337 56.7667C7.06671 59.2 7.70004 61.4 8.60004 63.3667Z" fill="#292D32"/>
<path d="M30.0001 34.6C34.3816 34.6 37.9334 31.0481 37.9334 26.6667C37.9334 22.2852 34.3816 18.7333 30.0001 18.7333C25.6186 18.7333 22.0668 22.2852 22.0668 26.6667C22.0668 31.0481 25.6186 34.6 30.0001 34.6Z" fill="white"/>
<path d="M53.9667 6.66666H26.0334C13.9001 6.66666 6.66675 13.9 6.66675 26.0333V53.9667C6.66675 57.6 7.30008 60.7667 8.53341 63.4333C11.4001 69.7667 17.5334 73.3333 26.0334 73.3333H53.9667C66.1001 73.3333 73.3334 66.1 73.3334 53.9667V46.3333V26.0333C73.3334 13.9 66.1001 6.66666 53.9667 6.66666ZM67.9001 41.6667C65.3001 39.4333 61.1001 39.4333 58.5001 41.6667L44.6334 53.5667C42.0334 55.8 37.8334 55.8 35.2334 53.5667L34.1001 52.6333C31.7334 50.5667 27.9667 50.3667 25.3001 52.1667L12.8334 60.5333C12.1001 58.6667 11.6667 56.5 11.6667 53.9667V26.0333C11.6667 16.6333 16.6334 11.6667 26.0334 11.6667H53.9667C63.3667 11.6667 68.3334 16.6333 68.3334 26.0333V42.0333L67.9001 41.6667Z" fill="white"/>
</svg>
