<svg width="80" height="80" viewBox="0 0 80 80" fill="none" xmlns="http://www.w3.org/2000/svg">
<path d="M69.9001 53.6C69.1001 62.5 62.6668 68.3333 53.3334 68.3333H23.3334C14.1334 68.3333 6.66675 60.8667 6.66675 51.6667V28.3333C6.66675 19.2667 12.1334 12.9333 20.6334 11.8667C21.5001 11.7333 22.4001 11.6667 23.3334 11.6667H53.3334C54.2001 11.6667 55.0334 11.7 55.8334 11.8333C63.8001 12.7667 69.2001 18.3333 69.9001 26.4C70.0001 27.3667 69.2001 28.1667 68.2334 28.1667H63.0668C59.8668 28.1667 56.9001 29.4 54.7668 31.6C52.2334 34.0667 50.9668 37.5333 51.2668 41C51.8001 47.0667 57.1334 51.8333 63.4668 51.8333H68.2334C69.2001 51.8333 70.0001 52.6333 69.9001 53.6Z" fill="white"/>
<path d="M73.3333 36.5667V43.4333C73.3333 45.2667 71.8666 46.7667 70 46.8333H63.4666C59.8666 46.8333 56.5666 44.2 56.2666 40.6C56.0666 38.5 56.8666 36.5333 58.2666 35.1667C59.5 33.9 61.2 33.1667 63.0666 33.1667H70C71.8666 33.2333 73.3333 34.7333 73.3333 36.5667Z" fill="white"/>
</svg>
